HIERARCHY
ROOT joint_Root
{
	OFFSET 0.0 0.0 0.0
	CHANNELS 6 Xposition Yposition Zposition Zrotation Xrotation Yrotation 
	JOINT Hips
	{
		OFFSET 4.5925 91.4895 -427.239
		CHANNELS 6 Xposition Yposition Zposition Zrotation Xrotation Yrotation 
		JOINT Spine
		{
			OFFSET 15.7357 0.0 0.0
			CHANNELS 6 Xposition Yposition Zposition Zrotation Xrotation Yrotation 
			JOINT Chest
			{
				OFFSET 8.98455 -0.406207 0.0
				CHANNELS 6 Xposition Yposition Zposition Zrotation Xrotation Yrotation 
				JOINT Neck
				{
					OFFSET 16.3773 0.0 0.0
					CHANNELS 6 Xposition Yposition Zposition Zrotation Xrotation Yrotation 
					JOINT Head
					{
						OFFSET 6.45672 0.0 0.0
						CHANNELS 6 Xposition Yposition Zposition Zrotation Xrotation Yrotation 
						End Site
						{
							OFFSET 0.0 0.0 0.0
						}
					}
				}
				JOINT Shoulder_L
				{
					OFFSET 12.9942 -0.242716 4.98039
					CHANNELS 6 Xposition Yposition Zposition Zrotation Xrotation Yrotation 
					JOINT UpperArm_L
					{
						OFFSET 5.34809 0.0 0.0
						CHANNELS 6 Xposition Yposition Zposition Zrotation Xrotation Yrotation 
						JOINT LowerArm_L
						{
							OFFSET 24.3286 1.87007e-05 0.0
							CHANNELS 6 Xposition Yposition Zposition Zrotation Xrotation Yrotation 
							JOINT Hand_L
							{
								OFFSET 22.2916 0.0 0.0
								CHANNELS 6 Xposition Yposition Zposition Zrotation Xrotation Yrotation 
								End Site
								{
									OFFSET 0.0 0.0 0.0
								}
							}
						}
					}
				}
				JOINT Shoulder_R
				{
					OFFSET 12.9945 -0.242716 -4.98039
					CHANNELS 6 Xposition Yposition Zposition Zrotation Xrotation Yrotation 
					JOINT UpperArm_R
					{
						OFFSET -5.34813 0.0 0.0
						CHANNELS 6 Xposition Yposition Zposition Zrotation Xrotation Yrotation 
						JOINT LowerArm_R
						{
							OFFSET -24.3289 0.000322201 0.0
							CHANNELS 6 Xposition Yposition Zposition Zrotation Xrotation Yrotation 
							JOINT Hand_R
							{
								OFFSET -22.2915 -0.000108084 0.0
								CHANNELS 6 Xposition Yposition Zposition Zrotation Xrotation Yrotation 
								End Site
								{
									OFFSET 0.0 0.0 0.0
								}
							}
						}
					}
				}
			}
		}
		JOINT UpperLeg_L
		{
			OFFSET -2.19248 -6.46944 0.0
			CHANNELS 6 Xposition Yposition Zposition Zrotation Xrotation Yrotation 
			JOINT LowerLeg_L
			{
				OFFSET 39.0811 0.0 -1.23785e-05
				CHANNELS 6 Xposition Yposition Zposition Zrotation Xrotation Yrotation 
				JOINT Foot_L
				{
					OFFSET 40.9854 0.0 -1.26872e-05
					CHANNELS 6 Xposition Yposition Zposition Zrotation Xrotation Yrotation 
					JOINT Toes_L
					{
						OFFSET 11.7543 0.0 0.0
						CHANNELS 6 Xposition Yposition Zposition Zrotation Xrotation Yrotation 
						End Site
						{
							OFFSET 0.0 0.0 0.0
						}
					}
				}
			}
		}
		JOINT UpperLeg_R
		{
			OFFSET -2.19251 6.46944 0.0
			CHANNELS 6 Xposition Yposition Zposition Zrotation Xrotation Yrotation 
			JOINT LowerLeg_R
			{
				OFFSET -39.0811 -0.00228153 -0.0401928
				CHANNELS 6 Xposition Yposition Zposition Zrotation Xrotation Yrotation 
				JOINT Foot_R
				{
					OFFSET -40.9854 0.0 0.0
					CHANNELS 6 Xposition Yposition Zposition Zrotation Xrotation Yrotation 
					JOINT Toes_R
					{
						OFFSET -11.7543 0.0 0.0
						CHANNELS 6 Xposition Yposition Zposition Zrotation Xrotation Yrotation 
						End Site
						{
							OFFSET 0.0 0.0 0.0
						}
					}
				}
			}
		}
	}
}
MOTION
Frames:	8
Frame Time:	0.0333333
0.000000 0.000000 0.000000 0.000000 0.000000 -0.000000 105.887000 85.943300 164.250000 -72.716400 56.954400 164.913000 15.735700 0.000005 -0.000001 122.803000 82.252500 -123.594000 8.984550 -0.406207 -0.000000 5.362020 8.392620 -1.975280 16.377300 -0.000001 -0.000001 -2.780340 7.821370 -2.062550 6.456720 -0.000001 -0.000000 -7.940000 6.776010 -5.893690 12.994200 -0.242716 4.980390 -89.116700 -2.036690 -66.538400 5.348090 -0.000007 -0.000001 -64.275900 29.057800 27.312200 24.328600 0.000019 0.000005 -2.298720 -0.022336 -89.444700 22.291600 -0.000001 0.000005 4.341650 5.518860 -7.305730 12.994500 -0.242716 -4.980390 89.568000 3.774180 -83.453900 -5.348130 -0.000001 -0.000004 -49.722600 46.305900 -40.621000 -24.328900 0.000322 -0.000009 -17.164100 4.667420 -104.770000 -22.291500 -0.000108 -0.000004 19.604800 5.596430 -11.127300 -2.192480 -6.469440 -0.000000 169.778000 -24.533700 -35.237600 39.081100 -0.000007 -0.000012 -0.195562 0.215837 42.179100 40.985400 -0.000006 -0.000013 15.733300 -12.489100 -65.509400 11.754300 -0.000000 0.000003 -0.003914 -0.050546 -18.632800 -2.192510 6.469440 -0.000001 170.839000 22.035500 -172.111000 -39.081100 -0.002282 -0.040193 0.035551 -0.037554 40.676000 -40.985400 0.000008 0.000006 -5.571610 7.718370 -53.776000 -11.754300 -0.000006 -0.000006 -0.262399 -0.739908 -48.825100
0.000000 0.000000 0.000000 0.000000 0.000000 -0.000000 110.059000 84.508000 160.937000 -72.430000 55.008300 165.129000 15.735700 0.000005 -0.000001 119.000000 82.564100 -119.707000 8.984550 -0.406207 -0.000000 5.319360 7.209350 -1.748150 16.377300 -0.000001 -0.000001 -3.176800 8.596430 -1.002870 6.456720 -0.000001 -0.000000 -7.177790 8.539770 -5.121180 12.994200 -0.242716 4.980390 -91.163500 2.615060 -66.014100 5.348090 -0.000007 -0.000001 -62.850300 25.465400 22.236100 24.328600 0.000019 0.000005 -3.119610 -0.048800 -89.107300 22.291600 -0.000001 0.000005 7.069440 5.523060 -7.493960 12.994500 -0.242716 -4.980390 89.152400 7.802150 -83.784400 -5.348130 -0.000001 -0.000004 -54.711900 47.886600 -27.190100 -24.328900 0.000322 -0.000009 -20.775900 1.193710 -93.155000 -22.291500 -0.000108 -0.000004 19.019500 5.601300 -11.424200 -2.192480 -6.469440 -0.000000 172.213000 -20.923000 -34.391900 39.081100 -0.000007 -0.000012 -0.585835 0.486434 50.297800 40.985400 -0.000006 -0.000013 12.949800 -14.841400 -72.480800 11.754300 -0.000000 0.000003 -0.000025 -0.000303 -16.589400 -2.192510 6.469440 -0.000001 171.091000 20.156800 -175.093000 -39.081100 -0.002282 -0.040193 0.193816 -0.162618 49.524900 -40.985400 0.000008 0.000006 -3.744690 6.640870 -45.041800 -11.754300 -0.000006 -0.000006 -0.323762 -0.819332 -52.895500
0.000000 0.000000 0.000000 0.000000 0.000000 -0.000000 113.406000 83.880600 157.062000 -76.001500 51.870300 169.269000 15.735700 0.000005 -0.000001 113.162000 82.579200 -114.318000 8.984550 -0.406207 -0.000000 5.963470 5.840560 -2.615420 16.377300 -0.000001 -0.000001 -2.442170 8.716990 -1.070130 6.456720 -0.000001 -0.000000 -6.919900 9.062260 -3.372690 12.994200 -0.242716 4.980390 -92.592800 5.430870 -64.434100 5.348090 -0.000007 -0.000001 -62.802200 27.761400 9.742420 24.328600 0.000019 0.000005 -4.453260 -0.109130 -88.604000 22.291600 -0.000001 0.000005 10.519900 5.528880 -7.739750 12.994500 -0.242716 -4.980390 88.616900 9.838370 -81.958300 -5.348130 -0.000001 -0.000004 -60.403600 46.729400 -15.272900 -24.328900 0.000322 -0.000009 -17.995600 -5.245900 -74.221100 -22.291500 -0.000108 -0.000004 18.953200 5.604750 -11.533600 -2.192480 -6.469440 -0.000000 171.522000 -19.042000 -29.630800 39.081100 -0.000007 -0.000012 -0.837838 0.652172 52.105600 40.985400 -0.000006 -0.000013 12.247400 -14.688100 -77.425200 11.754300 -0.000000 0.000003 -0.000025 -0.000303 -16.589400 -2.192510 6.469440 -0.000001 170.160000 17.340500 179.303000 -39.081100 -0.002282 -0.040193 0.305032 -0.174756 59.930000 -40.985400 0.000008 0.000006 -2.925950 3.251740 -31.393000 -11.754300 -0.000006 -0.000006 -0.080741 -0.394010 -32.934200
0.000000 0.000000 0.000000 0.000000 0.000000 -0.000000 115.954000 83.895900 153.820000 -78.360000 46.703800 170.818000 15.735700 0.000005 -0.000001 107.771000 83.167200 -108.955000 8.984550 -0.406207 -0.000000 5.303180 4.187220 -2.560580 16.377300 -0.000001 -0.000001 -1.401240 8.127330 -1.363390 6.456720 -0.000001 -0.000000 -5.178890 8.590840 -1.785740 12.994200 -0.242716 4.980390 -92.718200 5.847500 -65.016800 5.348090 -0.000007 -0.000001 -65.047800 32.076000 -3.468660 24.328600 0.000019 0.000005 -0.243070 0.005180 -92.078400 22.291600 -0.000001 0.000005 10.712800 5.542860 -8.375030 12.994500 -0.242716 -4.980390 88.330600 10.461100 -80.881200 -5.348130 -0.000001 -0.000004 -64.163000 43.187100 -1.952750 -24.328900 0.000322 -0.000009 -12.817400 -6.680840 -62.916300 -22.291500 -0.000108 -0.000004 20.848400 5.627890 -13.240700 -2.192480 -6.469440 -0.000000 171.257000 -15.997700 -25.729800 39.081100 -0.000007 -0.000012 -0.848441 0.681431 51.232900 40.985400 -0.000006 -0.000013 12.423800 -13.035300 -80.267500 11.754300 -0.000000 0.000003 -0.000027 -0.000329 -16.590400 -2.192510 6.469440 -0.000001 172.760000 13.922400 170.846000 -39.081100 -0.002282 -0.040193 0.184923 -0.065339 70.232900 -40.985400 0.000008 0.000006 1.160270 -2.084250 -29.136500 -11.754300 -0.000006 -0.000006 -0.022288 -0.179648 -23.917400
0.000000 0.000000 0.000000 0.000000 0.000000 -0.000000 118.519000 85.046300 150.558000 -79.906900 39.877300 172.291000 15.735700 0.000005 -0.000001 97.123500 83.346900 -97.859400 8.984550 -0.406207 -0.000000 5.450380 1.661170 -1.549130 16.377300 -0.000001 -0.000001 -0.575495 6.988310 -2.153500 6.456720 -0.000001 -0.000000 -4.128630 8.478450 -1.211450 12.994200 -0.242716 4.980390 -92.006400 4.814770 -67.350600 5.348090 -0.000007 -0.000001 -64.958500 37.981400 -17.671100 24.328600 0.000019 0.000005 2.904420 -0.366485 -97.166100 22.291600 -0.000001 0.000005 12.895200 5.529820 -7.801480 12.994500 -0.242716 -4.980390 88.002400 10.214900 -78.869000 -5.348130 -0.000001 -0.000004 -63.684200 42.007200 10.698700 -24.328900 0.000322 -0.000009 -20.281400 -8.840710 -67.402600 -22.291500 -0.000108 -0.000004 16.903300 5.632110 -13.481600 -2.192480 -6.469440 -0.000000 172.368000 -13.107000 -19.009900 39.081100 -0.000007 -0.000012 -0.665454 0.636788 46.263100 40.985400 -0.000006 -0.000013 13.233800 -9.102400 -81.257500 11.754300 -0.000000 0.000003 -0.000037 -0.000436 -16.594500 -2.192510 6.469440 -0.000001 175.783000 11.576300 164.359000 -39.081100 -0.002282 -0.040193 -0.010733 0.003204 76.851500 -40.985400 0.000008 0.000006 7.077030 -5.091950 -37.024300 -11.754300 -0.000006 -0.000006 -0.022002 -0.178136 -23.855000
0.000000 0.000000 0.000000 0.000000 0.000000 -0.000000 121.261000 86.892500 147.271000 -80.237400 31.699600 172.940000 15.735700 0.000005 -0.000001 78.281700 83.225300 -78.122800 8.984550 -0.406207 -0.000000 5.509830 -2.748600 0.449819 16.377300 -0.000001 -0.000001 0.678325 5.870000 -2.481550 6.456720 -0.000001 -0.000000 -3.616720 10.093100 -1.948390 12.994200 -0.242716 4.980390 -91.042800 2.722820 -69.046800 5.348090 -0.000007 -0.000001 -59.984100 41.968100 -32.124500 24.328600 0.000019 0.000005 3.150460 -0.737175 -103.157000 22.291600 -0.000001 0.000005 14.724000 5.518300 -7.296520 12.994500 -0.242716 -4.980390 88.174200 7.452390 -76.184600 -5.348130 -0.000001 -0.000004 -63.626900 44.201700 19.336000 -24.328900 0.000322 -0.000009 -22.577800 -7.664390 -72.218600 -22.291500 -0.000108 -0.000004 13.833100 5.627240 -13.136700 -2.192480 -6.469440 -0.000000 175.007000 -9.615970 -10.777600 39.081100 -0.000007 -0.000012 -0.411717 0.529552 37.865400 40.985400 -0.000006 -0.000013 14.256000 -4.227800 -80.611300 11.754300 -0.000000 0.000003 -0.280678 -0.348650 -16.364700 -2.192510 6.469440 -0.000001 178.686000 11.152300 159.467000 -39.081100 -0.002282 -0.040193 -0.064905 0.014720 77.761200 -40.985400 0.000008 0.000006 8.765600 -9.226450 -43.155400 -11.754300 -0.000006 -0.000006 -0.021777 -0.176937 -23.805600
0.000000 0.000000 0.000000 0.000000 0.000000 -0.000000 123.890000 89.002200 144.337000 -79.833900 23.797500 171.711000 15.735700 0.000005 -0.000001 60.095400 82.921600 -58.875500 8.984550 -0.406207 -0.000000 4.611100 -7.079210 2.724760 16.377300 -0.000001 -0.000001 1.567910 4.826740 -2.665890 6.456720 -0.000001 -0.000000 -2.813790 11.433300 -1.872830 12.994200 -0.242716 4.980390 -89.966300 -0.097330 -70.577500 5.348090 -0.000007 -0.000001 -53.660600 42.186200 -44.727800 24.328600 0.000019 0.000005 2.194380 -0.749252 -108.827000 22.291600 -0.000001 0.000005 12.914800 5.516470 -7.206910 12.994500 -0.242716 -4.980390 88.731100 4.467950 -74.117900 -5.348130 -0.000001 -0.000004 -63.876400 45.310300 26.409400 -24.328900 0.000322 -0.000009 -19.735300 -4.980490 -76.400300 -22.291500 -0.000108 -0.000004 12.207600 5.628060 -13.189400 -2.192480 -6.469440 -0.000000 177.464000 -4.557870 -3.906870 39.081100 -0.000007 -0.000012 0.038709 -0.076185 26.934900 40.985400 -0.000006 -0.000013 18.467800 -1.686630 -76.680400 11.754300 -0.000000 0.000003 -0.680076 -0.833347 -17.435000 -2.192510 6.469440 -0.000001 -178.176000 9.572950 154.003000 -39.081100 -0.002282 -0.040193 -0.062666 0.018711 74.106500 -40.985400 0.000008 0.000006 8.691210 -12.658800 -48.859600 -11.754300 -0.000006 -0.000006 -0.020654 -0.170883 -23.556000
0.000000 0.000000 0.000000 0.000000 0.000000 -0.000000 126.504000 90.748600 141.425000 -79.455200 18.234600 170.077000 15.735700 0.000005 -0.000001 49.484300 82.655400 -47.443100 8.984550 -0.406207 -0.000000 3.619140 -9.605230 4.389460 16.377300 -0.000001 -0.000001 1.729120 4.139000 -2.271340 6.456720 -0.000001 -0.000000 -2.231420 12.019400 -1.642020 12.994200 -0.242716 4.980390 -88.979700 -3.071710 -71.611600 5.348090 -0.000007 -0.000001 -49.009600 39.975300 -54.758000 24.328600 0.000019 0.000005 2.883560 -1.223870 -112.978000 22.291600 -0.000001 0.000005 11.137200 5.501190 -6.577140 12.994500 -0.242716 -4.980390 89.532100 1.495890 -72.611000 -5.348130 -0.000001 -0.000004 -64.833300 44.777700 32.002600 -24.328900 0.000322 -0.000009 -17.566300 -3.319240 -79.636300 -22.291500 -0.000108 -0.000004 11.949200 5.629040 -13.265000 -2.192480 -6.469440 -0.000000 -179.665000 -1.961180 -0.085192 39.081100 -0.000007 -0.000012 0.027019 -0.077347 19.255800 40.985400 -0.000006 -0.000013 17.405200 2.528920 -69.841800 11.754300 -0.000000 0.000003 -2.122970 -2.387470 -21.554800 -2.192510 6.469440 -0.000001 -176.763000 5.622330 149.513000 -39.081100 -0.002282 -0.040193 -0.039748 0.018246 66.957200 -40.985400 0.000008 0.000006 8.669700 -14.228500 -54.032100 -11.754300 -0.000006 -0.000006 -0.020596 -0.170566 -23.542900
